# xmcd
#
# Track frame offsets:
#       225
#       36181
#       66351
#       80103
#       95157
#       131111
#       154476
#       174600
#       204683
#       231077
#
# Disc length: 3365 seconds
#
# Revision: 1
# Processed by: cddbd v1.4PL0 Copyright (c) Steve Scherf et al.
# Submitted via: MusiCat 1.1
#
DISCID=980d220a
DTITLE=Corrie van Bingsbergen - Vanbinsbergen
DYEAR=1900
DGENRE=
TTITLE0=Dr. Schweitzer's Last Mission
TTITLE1=Tag You're It
TTITLE2=Research On Pigs
TTITLE3=Zoot Suit (Part I)
TTITLE4=Siegfried's Dilemma
TTITLE5=Modest
TTITLE6=Whereabots Unknown
TTITLE7=Watch Your Step
TTITLE8=Happy Dog
TTITLE9=High
EXTD=\n\n
EXTT0=
EXTT1=
EXTT2=
EXTT3=
EXTT4=
EXTT5=
EXTT6=
EXTT7=
EXTT8=
EXTT9=
PLAYORDER=
